name analog
datacolumns 19
datarows 32
range 0.374 0.3895
endheader
time	ground_force_vx	ground_force_vy	ground_force_vz	ground_force_px	ground_force_py	ground_force_pz	l_ground_force_vx	l_ground_force_vy	l_ground_force_vz	l_ground_force_px	l_ground_force_py	l_ground_force_pz	ground_torque_x	ground_torque_y	ground_torque_z	l_ground_torque_x	l_ground_torque_y	l_ground_torque_z
0.374	-0.0	-0.0	-0.0	0.1899747252464294	34.53604507446289	-249.34503173828125	4.508485794067383	-34.88706970214844	-255.22982788085935	-0.0	-0.0	-0.0	-0.0	-0.0	-0.0	73156.8125	-20966.5703125	2323.954345703125
0.3745	-0.0	-0.0	-0.0	-0.8921051025390625	34.79182434082031	-247.2110137939453	3.1621272563934326	-34.523765563964844	-255.3932342529297	-0.0	-0.0	-0.0	-0.0	-0.0	-0.0	73063.3125	-20342.931640625	1743.658203125
0.375	-0.0	-0.0	-0.0	-2.575028657913208	34.84999084472656	-246.1186065673828	2.1864490509033203	-35.120849609375	-256.3592224121094	-0.0	-0.0	-0.0	-0.0	-0.0	-0.0	73139.421875	-19777.328125	1508.981201171875
0.3755	-0.0	-0.0	-0.0	-3.940654754638672	34.438236236572266	-244.5833282470703	0.8714823126792908	-34.97538757324219	-255.4559783935547	-0.0	-0.0	-0.0	-0.0	-0.0	-0.0	73227.78125	-19316.447265625	913.0073852539062
0.376	-0.0	-0.0	-0.0	-4.893975734710693	35.08404922485352	-245.28884887695312	-0.3813327848911285	-35.271331787109375	-254.59274291992188	-0.0	-0.0	-0.0	-0.0	-0.0	-0.0	73321.0703125	-19112.451171875	692.3037719726562
0.3765	-0.0	-0.0	-0.0	-5.561609268188477	34.60032272338867	-245.63177490234372	-1.843048095703125	-35.094600677490234	-256.62646484375	-0.0	-0.0	-0.0	-0.0	-0.0	-0.0	73215.28125	-18439.49609375	80.22715759277344
0.377	-0.0	-0.0	-0.0	-5.559284210205078	34.745628356933594	-245.3997039794922	-3.058441162109375	-35.44782257080078	-255.1079864501953	-0.0	-0.0	-0.0	-0.0	-0.0	-0.0	73288.1015625	-17849.580078125	-145.36289978027344
0.3775	-0.0	-0.0	-0.0	-5.202724933624268	34.878475189208984	-246.7598876953125	-3.5213546752929688	-35.666622161865234	-257.0362243652344	-0.0	-0.0	-0.0	-0.0	-0.0	-0.0	73806.5703125	-17823.888671875	-461.6767883300781
0.378	-0.0	-0.0	-0.0	-4.682765007019043	34.83487319946289	-249.1653289794922	-4.346828460693359	-35.490020751953125	-258.6141052246094	-0.0	-0.0	-0.0	-0.0	-0.0	-0.0	73907.03125	-17684.515625	-663.55029296875
0.3785	-0.0	-0.0	-0.0	-4.415232181549072	34.49483871459961	-250.0513916015625	-4.435539245605469	-36.00471878051758	-258.0359802246094	-0.0	-0.0	-0.0	-0.0	-0.0	-0.0	74253.7421875	-17396.55078125	-650.6258544921875
0.379	-0.0	-0.0	-0.0	-3.880181074142456	34.89407730102539	-252.75784301757807	-4.955405235290527	-35.4046516418457	-259.2995300292969	-0.0	-0.0	-0.0	-0.0	-0.0	-0.0	74244.2265625	-17252.615234375	-704.9971923828125
0.3795	-0.0	-0.0	-0.0	-3.5541789531707764	34.76085662841797	-250.9358367919922	-5.236542701721191	-35.99238586425781	-259.07049560546875	-0.0	-0.0	-0.0	-0.0	-0.0	-0.0	74253.8828125	-16997.31640625	-981.60107421875
0.38	-0.0	-0.0	-0.0	-3.8065340518951416	34.968936920166016	-249.8741455078125	-5.3226470947265625	-35.5527458190918	-259.4706726074219	-0.0	-0.0	-0.0	-0.0	-0.0	-0.0	74263.734375	-17088.42578125	-887.5396728515625
0.3805	-0.0	-0.0	-0.0	-4.178013324737549	35.45903396606445	-250.3456573486328	-5.354871273040772	-35.93187713623047	-259.419677734375	-0.0	-0.0	-0.0	-0.0	-0.0	-0.0	74305.6328125	-16721.3828125	-878.2471923828125
0.381	-0.0	-0.0	-0.0	-3.984652996063232	35.16188049316406	-249.81578063964844	-5.294273376464844	-36.52012252807617	-258.7807312011719	-0.0	-0.0	-0.0	-0.0	-0.0	-0.0	74152.265625	-16796.21484375	-942.114501953125
0.3815	-0.0	-0.0	-0.0	-4.282652854919434	35.42960739135742	-252.46731567382807	-4.99783182144165	-35.623538970947266	-258.6031799316406	-0.0	-0.0	-0.0	-0.0	-0.0	-0.0	74090.1015625	-16547.2265625	-798.4702758789062
0.382	-0.0	-0.0	-0.0	-5.085807800292969	35.38477325439453	-251.40577697753903	-4.510394096374512	-35.72667694091797	-258.0820007324219	-0.0	-0.0	-0.0	-0.0	-0.0	-0.0	74051.7734375	-16985.078125	-857.52099609375
0.3825	-0.0	-0.0	-0.0	-4.520336151123047	35.54834747314453	-250.52096557617188	-4.465414524078369	-35.68196105957031	-257.6775207519531	-0.0	-0.0	-0.0	-0.0	-0.0	-0.0	73884.296875	-16886.693359375	-724.1759033203125
0.383	-0.0	-0.0	-0.0	-4.340620994567871	35.53236389160156	-252.10687255859372	-3.991985321044922	-35.358280181884766	-259.59326171875	-0.0	-0.0	-0.0	-0.0	-0.0	-0.0	74109.546875	-17131.34375	-521.0802612304688
0.3835	-0.0	-0.0	-0.0	-4.47512149810791	35.50306701660156	-252.8768310546875	-3.57780385017395	-35.461307525634766	-259.5936584472656	-0.0	-0.0	-0.0	-0.0	-0.0	-0.0	74599.1953125	-16914.685546875	-436.6701354980469
0.384	-0.0	-0.0	-0.0	-4.715689182281494	35.87601852416992	-251.75978088378903	-3.2675347328186035	-35.682090759277344	-259.419677734375	-0.0	-0.0	-0.0	-0.0	-0.0	-0.0	74303.234375	-16965.291015625	-392.0825805664063
0.3845	-0.0	-0.0	-0.0	-4.4582109451293945	35.991905212402344	-250.34722900390625	-2.8089215755462646	-35.564327239990234	-260.3497619628906	-0.0	-0.0	-0.0	-0.0	-0.0	-0.0	74737.71875	-17550.763671875	-287.8530578613281
0.385	-0.0	-0.0	-0.0	-5.070552349090576	35.948421478271484	-250.7005615234375	-2.883397340774536	-35.38775634765625	-260.70068359375	-0.0	-0.0	-0.0	-0.0	-0.0	-0.0	74716.921875	-17292.939453125	-248.3514862060547
0.3855	-0.0	-0.0	-0.0	-5.202961921691895	36.48601150512695	-248.28549194335935	-2.2470016479492188	-35.47621536254883	-261.1654052734375	-0.0	-0.0	-0.0	-0.0	-0.0	-0.0	74997.7265625	-17432.2421875	-183.7058258056641
0.386	-0.0	-0.0	-0.0	-5.741343975067139	36.88886642456055	-249.061279296875	-2.3647780418396	-35.356441497802734	-260.86865234375	-0.0	-0.0	-0.0	-0.0	-0.0	-0.0	75056.0703125	-17486.671875	-352.4330139160156
0.3865	-0.0	-0.0	-0.0	-5.830687999725342	35.97671127319336	-248.3421173095703	-2.42427396774292	-35.43147659301758	-262.8539428710937	-0.0	-0.0	-0.0	-0.0	-0.0	-0.0	75171.9453125	-17635.298828125	-283.0517272949219
0.387	-0.0	-0.0	-0.0	-5.202671051025391	36.14046859741211	-248.1164703369141	-2.809803009033203	-35.29798889160156	-262.91119384765625	-0.0	-0.0	-0.0	-0.0	-0.0	-0.0	75473.109375	-17423.9140625	-332.4294738769531
0.3875	-0.0	-0.0	-0.0	-4.892380237579346	36.14439010620117	-247.50698852539065	-2.9563326835632324	-35.490943908691406	-263.495849609375	-0.0	-0.0	-0.0	-0.0	-0.0	-0.0	75616.25	-17684.859375	-203.58566284179688
0.388	-0.0	-0.0	-0.0	-4.704349994659424	37.00767517089844	-250.29270935058597	-3.207956552505493	-35.79889678955078	-263.7791442871094	-0.0	-0.0	-0.0	-0.0	-0.0	-0.0	75590.765625	-17552.630859375	-421.8663940429688
0.3885	-0.0	-0.0	-0.0	-3.8360519409179688	36.2901496887207	-250.34881591796875	-3.133528470993042	-35.90139389038086	-265.006103515625	-0.0	-0.0	-0.0	-0.0	-0.0	-0.0	75508.0703125	-17158.0078125	-357.7353210449219
0.389	-0.0	-0.0	-0.0	-3.888017654418945	36.45856857299805	-248.5830535888672	-3.353759288787842	-35.99256134033203	-264.1836242675781	-0.0	-0.0	-0.0	-0.0	-0.0	-0.0	75742.5078125	-17247.158203125	-501.4786071777344
0.3895	-0.0	-0.0	-0.0	-3.389999389648437	36.994441986083984	-251.54055786132807	-3.470562696456909	-36.16604995727539	-264.2384948730469	-0.0	-0.0	-0.0	-0.0	-0.0	-0.0	75532.8203125	-16866.8515625	-536.0958862304688
